<svg version="1.2" xmlns="http://www.w3.org/2000/svg" viewBox="0 0 488 105" width="488" height="105"><style>.a{fill:#005aa7}</style><path class="a" d="m34.5 70q0.1 7.4 0.1 14.9 0 7.6-0.2 15.1 0 1.7-1.1 2.7-1.1 0.9-2.7 0.9-1.2 0-2.3-0.6-1.1-0.7-1.3-2-2.2-1-2.2-3.4 0.2-12.2 0.1-24.1 0-12-0.6-23.9-0.1-0.7-0.1-2.5 0-2.5-0.2-5.3-0.2-2.7-1.1-4.8-1.1-0.7-2.8-0.7-1.8 0.1-3.2 1.7-1.5 1.4-2.7 3.5-1 2-1.8 4.2-0.7 2.1-1 3.6l-1 52.1q0 1.8-1.2 2.7-1.1 0.9-2.4 1-1.3 0-2.4-0.7-1.1-0.8-1.4-2.1-2.2-0.8-2.2-3.3l0.8-50.3q-0.2-0.7 0-1.7 0-0.6 0.2-0.8l0.2-15.9q0-1.7 1.1-2.6 1.1-1 2.7-1 2.9 0 3.6 2.7 0.5 0.2 0.5 0.2 2.1-1.6 3.9-2.3 1.8-0.8 4.4-0.8 4 0 7.6 2.3 1.9 1.5 3.1 3.2 3.6 3.2 4.3 9.5 1 7.1 1.1 14.3 0.2 7 0.2 14.2zm-14.4-34.9h0.5 1.1q-1.3-1.2-3.6-1.2-1.7 0.1-3.3 1.7-1.4 1.4-2.6 3.5-1.1 2-1.9 4.2-0.7 2.1-1.1 3.6l-0.8 52.1q0 1.8-1.5 2.8-0.9 0.9-2.4 0.9 0.7 1.1 2.3 1.1 0.8 0 1.6-0.5 0.7-0.6 0.7-1.9l0.9-52.2q0.4-1.7 1.2-4.1 0.9-2.4 2.2-4.6 1.3-2.1 3-3.7 1.7-1.6 3.7-1.7zm7.6 64.7q0.2 0.1 0.8 0.1 1.1 0 1.6-0.5 0.9-0.6 0.9-1.8 0.3-7.6 0.3-15.1 0-7.5-0.1-14.9-0.2-1.2-0.2-2.4 0-1.2 0-2.5-0.1-5.9-0.3-11.7-0.1-6-0.9-11.8-0.6-6-4.8-9.4-3-2.1-6.8-2.1-0.8 0-1.7 0.1-0.7 0.1-1.4 0.4-1.7 0.6-3.3 1.5-1.4 1-2.5 2.4l-1.1 1.3v-3.1-0.3q-0.3-2-2.5-2-0.8 0-1.7 0.5-0.7 0.5-0.7 1.8l-0.3 16.1q0 0.5-0.2 0.8 0 0.9 0.2 1.2v0.2l-0.9 50.4q0 1.3 0.6 1.8 0.6 0.3 1 0.4 0.2 0.2 0.8 0.2 1.1 0 1.7-0.5 0.8-0.9 0.8-1.9l1-52.2q0.4-1.8 1.2-4.2 0.8-2.4 2.2-4.6 1.3-2.2 3-3.7 1.8-1.6 3.9-1.6 3.9 0 5.7 3.5l1 2-0.3-0.1q0.6 2.1 0.7 4.5 0.1 2.4 0.1 4.5v2.5q0.6 11.9 0.7 23.9 0.2 11.9-0.1 24.1-0.1 1.2 0.5 1.7 0.7 0.4 1.1 0.5zm5.4 0.2q0.2-7.6 0.2-15.1 0.1-7.4-0.1-14.9 0-1.2 0-2.4 0-1.2-0.1-2.5-0.1-5.9-0.4-11.7-0.1-6-0.7-11.8-0.4-2.9-1.2-4.4 0.2 1.2 0.4 1.9 0.9 7.2 1 14.3 0.2 7 0.2 14.2 0.3 14.7 0 30-0.2 1.8-1.5 2.9-1.1 0.7-2.5 0.7 0.7 1.1 2.3 1.1 0.9 0 1.7-0.5 0.7-0.6 0.7-1.8zm12-98.6q3.2 0 3.9 2.8 2.2 0.9 2.2 3.3 0 4.2 0 8.9 0.1 4.6 0.2 9.6 2.1-0.4 3.5-0.4 5.7 0 8.8 5.1 2.5 2.1 3.9 5.4 1.6 3.2 2.3 6.8 0.9 3.6 1.1 7.3 0.2 3.6 0.2 6.8 0 3.1 0 6.1 0 2.9 0.2 5.9v9.8q0 5 0 10.2 0 5 0.1 10.2 0 1.8-1.1 2.6-1.1 0.9-2.4 1-0.1 0.1-0.2 0.1-1.4 0-2.4-0.7-1-0.7-1.4-2-2.1-1-2.1-3.4-0.1-5.8-0.1-11.4 0-5.6 0-11.3 0-2.7 0-5.3 0-2.6-0.2-5.2v-4.1q0.2-2.9 0.2-5.8 0-3-0.3-5.9-0.5-7-3.2-11.7-0.5-0.4-1.5-0.4-0.2 0-0.6 0.1-0.2 0-0.6 0-1.6 0.2-4 0.8 0.3 16.2 0.9 32.2 0.7 16 1.7 31.8 0.1 1.7-0.8 2.7-1 0.8-2.3 1.1h-0.5q-1.2 0-2.3-0.8-1.1-0.7-1.4-2-2.1-1-2.3-3.2-1.4-23.4-2.2-46.6-0.7-23.3-0.8-46.7 0-1.8 1.1-2.6 1.1-1 2.4-1.1zm0.8 96.8q0.3 2.4 2.5 2.4 2.4 0 2.4-2.2-0.9-16.1-1.6-32.2-0.6-16.2-1-32.5v-0.6l0.5-0.1q1.3-0.3 2.5-0.5 1.2-0.3 2.3-0.4 0.2 0 0.5 0 0.3-0.1 0.6-0.1 2.6 0 4.3 2.8 0.1 0.1 0.1 0.2 0.1 0.1 0.2 0.2l1.6 2.4-0.4-0.1q2 4 2.3 10.2 0.3 2.9 0.3 5.9 0 3 0 5.9v4.1q0 8.2 0 16.6 0.1 8.3 0.2 16.6 0 1.1 0.7 1.8 0.7 0.6 1.7 0.6 0.8 0 1.7-0.6 0.5-0.4 0.7-1 0.1-0.2 0.1-0.8-0.1-5.2-0.1-10.3 0-5.2 0-10.2v-7.9l-0.1-1.8v-12q0-5.8-0.9-12-0.8-6.3-4.3-11.2-1.7-2.4-3.5-3.4-1.8-1-4.5-1-3.3 0-5.8 0.8l-0.8 0.2v-0.8q-0.1-5.8-0.3-11.2 0-5.5 0-10.9v-0.3q-0.3-2.1-2.6-2.1-0.8 0.1-1.6 0.6-0.7 0.5-0.7 1.8 0.1 23.3 0.9 46.6 0.7 23.3 2.1 46.5zm2.5 3.8q0.8 1 2.6 1 0.8-0.1 1.4-0.6 0.6-0.4 0.5-1.6-1-16.1-1.7-32.2-0.6-16.2-1-32.5v-0.6l0.6-0.1q1.4-0.3 2.4-0.5 1.2-0.3 2.3-0.4 0.4-0.1 0.9-0.1 0.4 0 0.7 0.1-1.1-1.2-2.4-1.2-0.3 0-0.6 0.1-0.3 0-0.5 0-2 0.3-4.1 0.8 0.4 16.2 1 32.1 0.7 16 1.7 31.9 0 3.8-3.8 3.8zm17.2-1.6q0.7 1.2 2.4 1.2 0.7-0.1 1.4-0.6 0.8-0.5 0.8-1.8-0.2-5.2-0.2-10.2 0-5.2 0-10.2v-9.8q0-3 0-5.9 0-3-0.1-6.1 0-3.9-0.2-8.3-0.3-4.5-1.8-8.8 0.9 3.9 1.1 7.7 0.2 3.7 0.2 7v13.8q0 7.2 0 14.2 0.1 7 0.2 14.2 0 1.7-1 2.6-1.1 1-2.8 1zm-16.2-74q0.2-0.2 0.4-0.2 0.1 0 0.3-0.1-0.1-5-0.1-9.6 0-4.7-0.1-9 0-1.1-0.7-1.8 0 5.1 0 10.2 0.1 5.1 0.2 10.5zm50.5 73.4q0.4 2.3-1.7 3.5-1.8 1.1-3.8 1.1-2.3 0-4.1-1.1-1.8-1.2-2.9-3.1-0.3-0.3-1-1-1.7-2-2.3-4.6-0.5-2.6-0.7-5 0-1.1-0.2-1.6-0.6-6.6-1.2-13.2-0.4-6.7-0.9-13.3-1.5-26.7-0.4-54.1 0.1-1.8 1.2-2.6 1.2-1 2.5-1 1.2 0 2.3 0.7 1.2 0.6 1.5 2.1 2.4 0.8 2.1 3.3-0.9 23.2 0 45.9 0.9 16.9 2.5 33.9v0.5q0.2 0.6 0.2 1.7 0.1 0.9 0.3 2 0.3 0 0.4 0 0.2-0.1 0.5-0.1 0.7 0 1.4 0.4 1.4 0.4 2 2.4 2.1 1 2.3 3.2zm-11.6-91.8q-1 22.9 0 45.4 0.6 11.6 1.4 22.8 0.4 5.5 1.1 11.1v0.5q0.2 3.5 0.6 4.8 0.4 1.3 0.6 1.7-0.2-1.2-0.4-2.3 0-1.1-0.1-1.7v-0.3q-0.8-8.7-1.5-17.1-0.6-8.5-1-17.1-1-22.6 0-46 0.1-0.7-0.2-1.1-0.3-0.5-0.5-0.7zm0 91.3h0.1q1.9 1.3 4 1.3 1.8 0 3.1-0.8 0.9-0.6 1.1-1.4 0.1-0.9 0-1.2-0.3-0.8-0.9-1.4-0.5-0.7-1.3-0.7-0.5 0-1.4 0.4-0.3 0.2-0.8 0.2-0.3 0-0.6-0.1-0.8-0.5-1.4-2.3-0.5-1.8-0.7-5.5v-0.4q-0.9-8.6-1.6-17-0.6-8.4-0.9-17-1-22.6 0-46v-0.4q-0.2-0.9-0.9-1.4-0.7-0.5-1.5-0.5-1 0-1.8 0.6-0.8 0.5-0.8 1.8-1 27.3 0.4 54 0.7 13.5 2.2 26.3 0 0.5 0 0.8 0.1 0.4 0.1 0.9 0.2 2.4 0.6 4.8 0.5 2.3 2 4.1zm9.3 2.8q0.9-0.6 1-1.2 0.2-0.6 0-1 0-0.8-0.7-1.7-0.2 1.8-1.8 2.6-1.5 1.1-3.7 1.1-0.7 0-1.9-0.2 1.9 1.3 3.9 1.3 1.8 0 3.2-0.9zm29.5-31.9q5.9 12 3.8 22-0.5 2.1-1.5 4.3-1 2-2.6 3.8-1.5 1.7-3.6 2.8-1.9 1.1-4.3 1.1-2.9 0-5.6-1.7-2.8-1.7-4.3-4.1-3.2-2.9-4.5-7.1-1.3-4.2-1.9-7.5-0.2-1.9 0.8-3.1 1.2-1.4 2.7-1.6 1.4 0 2.4 0.5 0.9 0.5 1.4 2 1.8 0.6 2.2 2.7l0.1 0.7q0.2 2 0.7 4.3 0.5 2.2 1.6 3.8 1.2 1 2.3 1 0.2 0 0.3 0 0.1-0.1 0.4-0.1 2-0.6 3.3-3.9 3.3-8.4-3.6-20.8-0.8-1.7-1.8-3.2-0.8-1.5-1.8-3.1-1.9-3.1-3.8-6.3-1.8-3.4-3.1-6.9-0.5-1.4-1.2-3.8-0.6-2.5-0.7-5.3-0.2-2.8 0.6-5.5 0.7-2.9 3-5.2 2-2 3.9-2.5 2.1-0.5 4.7-0.5 4.4 0.6 6.5 4.3 1.2 0.9 2.1 2.4 1 1.7 0.4 3.2-0.6 1.3-1.8 2-0.8 0.5-2 0.5-0.9 0-1.7-0.4-0.7-0.5-1.3-1.4-0.4-0.6-0.9-0.7-0.3-0.2-0.6-0.2-0.9 0.2-1.8 1-0.8 0.8-1.2 1.8-0.9 2.8-0.2 5.8 0.7 2.8 1.7 5.2 1.2 3 2.7 5.8 1.7 2.8 3.4 5.4 1.3 2 2.5 4.2 1.2 2.2 2.3 4.3zm-13.6-31.1q0.4-1.2 1.5-2.2 1-1.1 2.2-1.4 0-0.1-0.2-0.3-0.4-0.9-1.3-0.9-1 0.2-1.9 1-0.9 0.8-1.1 1.8-0.7 2.3-0.4 4.7 0.4 2.4 1.2 4.7-0.5-1.8-0.6-3.8 0-1.9 0.6-3.6zm10.6-5.4q-0.3 1.4-1.5 2.3-1 1-2.4 1 0.6 1.1 2 1.1 0.8 0 1.3-0.4 0.8-0.5 1.2-1.3 0.5-0.9-0.1-1.9-0.3-0.3-0.5-0.8zm-13.2 51.5l-0.1-0.7q-0.2-0.7-0.6-1.2 0.2 1.4 0.4 3 0.4 1.4 1 2.9-0.2-1-0.4-1.9-0.1-1.1-0.3-2.1zm-1 12.4q1.3 1.3 3.1 2.1 2 0.8 3.9 0.8 2.1 0 3.9-1 1.8-1.1 3.2-2.6 1.3-1.7 2.1-3.6 1-2 1.5-3.9 1.9-9.1-3.8-21-1-2.1-2.2-4.2-1.2-2.1-2.6-4.2-1.6-2.7-3.3-5.5-1.6-2.9-2.8-5.9-1.1-2.6-1.8-5.7-0.6-3.3 0.4-6.2 0.3-1.3 1.5-2.4 1.2-1 2.6-1.3 1.5 0 2.6 1.5 0.7 1.2 1.9 1.2 0.6 0 1.3-0.4 0.9-0.5 1.2-1.3 0.4-0.9-0.2-1.9v-0.2q-1.9-3.2-5.6-3.6-2.4 0-4.1 0.5-1.6 0.4-3.5 2.1-2 2-2.8 4.6-0.6 2.7-0.4 5.3 0.2 2.5 0.8 4.8 0.7 2.3 1.2 3.7 1.3 3.5 3.1 6.8 1.8 3.2 3.6 6.3 1.8 2.8 3.7 6.3 7.1 13 3.6 21.9-0.6 1.7-1.9 3.3-1.3 1.4-3.3 1.4-0.8 0-1.2-0.1l0.6 0.9-2.6-1.9h-0.1v-0.1q-2.5-1.9-3.3-5.2-0.9-3.2-1.4-6.1l-0.1-0.7q-0.2-1.1-0.8-1.3-0.6-0.4-1.6-0.4-0.9 0.3-1.8 1.1-0.8 0.7-0.6 2 0.6 3.3 1.8 7.4 1.2 3.9 4.2 6.7zm19.7-5.8q1.4-7.1-1.3-15.3 1.9 7.4 0.5 13.2-0.5 2.1-1.6 4.3-1 2.1-2.5 3.8-1.5 1.7-3.5 2.8-1.9 1.1-4.3 1.1-1.3 0-2.8-0.4-0.2 0-0.7-0.2 1.3 0.7 2.6 1.3 1.5 0.5 2.9 0.5 2.2 0 4-1 1.8-1.1 3.1-2.6 1.4-1.7 2.3-3.6 0.9-2 1.3-3.9zm30.7 7.2q0.3 2.4-1.7 3.5-1.8 1.1-3.8 1.1-3.6 0-6-2.8-0.6-0.6-1-1.4-0.6-0.4-1-1-1.8-2-2.3-4.5-0.5-2.7-0.7-5.1 0-1.1-0.2-1.5-1.3-12.8-2-25.4-0.7-12.6-1-25.3-1.8 0-2.5 0.1h-0.2q-1.5 0-2.3-0.7-0.8-0.8-1.1-1.9-0.9-0.4-1.7-1.3-0.6-1-0.4-2.3 0.1-1.3 0.9-2.4 1-1.2 2.7-1.3 1-0.1 2.1-0.1 1.2 0 2.5-0.2 0-5 0.2-9.9 0.1-4.9 0.3-10 0.1-1.8 1.2-2.6 1.2-1 2.5-1 1.2 0 2.3 0.7 1.2 0.6 1.5 2.1 2.1 0.7 2.1 3.3-0.2 4.2-0.3 8.6 0 4.3-0.2 8.8h2.4q2.8 0.3 3.4 2.8 1.3 0.6 1.9 1.8 0.6 1.2 0.4 2.5-0.6 2.9-3.6 2.9-1.1 0-2.2 0-0.9-0.1-2.3-0.1 0.3 10.4 0.6 20.7 0.5 10.2 1.4 20.7 0.2 2.7 0.4 5.6 0.3 2.8 0.6 5.5v0.5q0 0.6 0.2 1.7 0.1 1 0.3 2 0.3 0 0.4 0 0.2-0.1 0.5-0.1 0.6 0 1.3 0.4 1.5 0.5 2.1 2.4 2.1 1.1 2.3 3.2zm-4.9-66.1q-1 1.2-2.9 1.2-0.9-0.1-2-0.1-1.1 0-2.3 0 0 13.2 0.7 26.3 0.9 13 2.2 26.2 0 0.2 0 0.3 0.1 0 0.1 0.2 0.2 3.5 0.6 4.8 0.4 1.3 0.6 1.7-0.2-1.2-0.4-2.3 0-1.1-0.1-1.7v-0.3q-1.3-13.5-2-26.7-0.7-13.3-1-26.7v-0.7h0.7q1.5 0 2.7 0.1 1.2 0 2.4 0 1.3 0.1 1.7-0.6 0.4-0.9 0.6-1.2 0.2-1.6-0.8-2.5-0.2 1.4-0.8 2zm-6.8-25.7q-0.4 9.4-0.4 19.2h0.7q0.1-4.4 0.1-8.7 0.2-4.5 0.4-8.7 0-1.2-0.8-1.8zm-10.6 28.2q0.6 0 1.2 0 0.7-0.1 1.4-0.1v-0.4-0.8q-1.3 0-2.5 0.1-1.1 0-2.1 0.1 0.6 1.1 2 1.1zm9.7 62.2l1 0.9q1.9 1.4 4.1 1.4 1.8 0 3-0.9 1-0.6 1-1.4 0.2-0.9 0-1.2-0.1-0.7-0.7-1.3-0.5-0.8-1.3-0.8-0.5 0-1.4 0.4-0.3 0.2-0.8 0.2-0.4 0-0.6-0.1-0.8-0.5-1.4-2.3-0.5-1.8-0.7-5.5v-0.3q-1.7-13.1-2.4-26.6-0.6-13.5-0.6-26.7v-0.7h0.6q1.4 0 2.6 0.1 1.3 0 2.5 0 1.2 0 1.7-0.7 0.9-0.9 0.6-2.2-0.1-0.4-0.6-1.1-0.5-0.8-1.8-0.9-0.7 0-1.4 0-0.7-0.2-1.5-0.2h-2.1-0.6v-0.6q0-5.2 0.1-10.3 0.1-5.1 0.4-10.2v-0.3q-0.4-2-2.6-2-0.9 0-1.6 0.6-0.8 0.5-0.8 1.8-0.2 5.1-0.3 10.2-0.1 5.2-0.1 10.2v0.6l-0.8 0.2q-1.4 0-2.7 0.1-1.2 0-2.4 0.1-1.3 0.1-1.8 1-0.5 0.7-0.6 1.5-0.1 0.7 0.2 1.5 0.4 0.7 1.3 0.9h0.8q1.2-0.1 2.4-0.1 1.3-0.1 2.8-0.1h0.8v0.6 1.4 1.1q0.2 12.8 0.8 25.7 0.7 12.7 2.2 25.4 0 0.5 0 0.9 0.1 0.3 0.1 0.8 0.2 2.4 0.6 4.8 0.5 2.3 2 4.1zm10.2 3.8q0.9-0.6 1-1.2 0.2-0.6 0.1-1.1 0-0.7-0.7-1.6-0.3 1.8-1.8 2.6-1.6 1.1-3.7 1.1-0.8 0-2-0.3 2 1.4 4 1.4 1.8 0 3.1-0.9zm35.1-11.5q1 4.9-1.4 9.1-2.4 4.1-7 5.2-1.2 0.3-2.8 0.3-6.1 0-10.1-5.6-2-1.9-3.1-4.3-2-4-2.6-8.3-0.6-4.4-1-8.6-0.2-2.1-0.4-4.1 0-2.2-0.1-4.6-0.8-1.4-0.1-3.3 0-2.3 0-4.4 0.1-2.1 0.1-3.9v-0.6q0-3.3 0.3-7.7 0.2-4.6 1-8.9 1-4.4 2.9-8.1 2.1-3.8 5.4-5.3 1.9-0.9 3.1-0.9 3.9 0 6.9 4.5 2.4 1.9 3.5 5.1 1.6 4.6 2 9.5 0.4 4.9 0.2 8.8 0 2.3-0.2 4.7-0.2 2.2-0.7 4.8 0 0.6-0.1 0.9-0.4 2.8-1 4.7-0.6 1.8-1.7 3-1.1 1.1-3 1.6-1.8 0.4-4.7 0.4-1-0.1-2.1-0.1-1-0.1-2.2-0.2 0 1.8 0.1 4.7 0.3 2.7 0.6 5.7 0.5 2.9 1.1 5.7 0.7 2.7 1.7 4.3 1 0.5 1.4 0.6 1.1 0 2-0.1 0.8-0.3 1.6-1.1 1.6-1.7 1-4-0.5-1.8 0.5-3 1.1-1.2 2.5-1.5 0.2-0.2 1-0.2 1 0 2 0.6 1 0.6 1.2 2.1 1.8 0.8 2.2 2.5zm-4.5-36.2q0.1-3.5-0.2-8.2-0.3-4.8-1.8-9.1 0.9 3.9 1.2 7.9 0.2 4 0.1 7.1-0.1 2.3-0.4 4.7-0.1 2.2-0.6 4.8 0 0.2-0.1 0.4 0 0.3 0 0.5-0.2 1.9-0.8 4-0.5 2-1.8 3.5-1.2 1.4-2.9 1.8-1.6 0.3-3.2 0.3-1.6 0-3 0-1.5-0.1-2.9-0.2 0.1 5.3 0.6 9.3 0.5 4 1.4 7.6 0.4 1 0.6 1.8-0.9-3.5-1.4-7.6-0.4-4-0.5-9.4v-0.8l0.7 0.2q1.3 0.1 2.5 0.2 1.2 0 2.4 0.1h0.9q4.9 0 6.2-2 1.3-2.1 1.9-6.5 0.2-0.2 0.2-0.5 0-0.3 0.1-0.6 0.3-2.4 0.6-4.7 0.2-2.4 0.2-4.6zm-15.8 44.2q3.1 2.9 7.2 2.9 0.8 0 2.3-0.2 4-1 6.2-4.6 2.2-3.7 1.2-7.9v-0.4q-0.2-0.9-0.8-1.3-0.6-0.3-1.2-0.3-0.3 0-0.4 0.1-0.1 0-0.4 0-0.9 0.2-1.6 0.9-0.6 0.8-0.4 2.1 0.7 2.9-1.2 5-1.7 1.7-3.8 1.7-0.6 0-0.9-0.1h-0.3l0.3 0.7-2.3-1.6q-1.9-1.3-3.1-4.5-1.1-3.3-1.7-7-0.6-3.8-0.8-7.4-0.2-3.6-0.2-5.5v-0.8l0.7 0.2q1.3 0.1 2.5 0.2 1.2 0 2.4 0.1h0.8q2.4 0 3.9-0.5 1.5-0.6 2.4-1.5 0.8-1.1 1.2-2.7 0.3-1.6 0.7-3.8 0.1-0.4 0.1-1.1 0.5-2.4 0.6-4.7 0.3-2.4 0.4-4.6 0.1-3.6-0.3-8.4-0.2-5-1.9-9.3-0.6-1.7-1.3-2.5-0.6-1-2.2-2.4-1.4-1.4-3.7-1.4-2.1 0-3.9 1.4-1.7 1.4-2.9 3.5-1.2 2-2.1 4.4-0.7 2.3-1 4-1 3.9-1.2 8-0.2 4.1-0.2 8.2v0.6q-0.1 1.9-0.1 4.1 0 2 0 4.3v0.2q-0.7 1.3 0 2.5l0.1 0.2v0.2q0 3 0.2 7.1 0.2 4.1 0.8 8.3 0.7 4 2 7.8 1.5 3.7 3.9 5.8zm11.6 5.1q4.1-1 6.3-4.7 2.1-3.7 1-8-0.1-0.8-0.4-1.2 0.4 4.5-2.1 8.1-2.4 3.6-6.6 4.6-1.4 0.3-2.9 0.3-1.5 0-3.3-0.6 2.6 1.7 5.6 1.7 0.6 0 1.2 0 0.6-0.1 1.2-0.2zm-13.7-38.2v-0.6-2.3-3.7q0-5.4 0.3-10.7 0.3-5.2 2.4-10.2l0.1-0.2q0.6-1.4 1.2-2.6 0.7-1.2 1.7-1.8 0.9-0.3 1.1-0.3h0.3q1 0.4 1.6 2.1h0.1q0.2 0.4 0.2 0.8l0.4 0.6h-0.1q0.9 2.5 1.2 5.4 0.2 2.8 0.3 5.2 0.3 3.8 0 7.5-0.2 3.6-0.9 7.1 0 0.5-0.1 0.7-0.3 2.5-0.9 3.1-0.5 0.5-1.4 0.5-0.3 0-1 0-0.7-0.1-0.8-0.2-0.5 0-1.1 0-0.5 0-1.1-0.1h-0.7q-0.7 0-2.2-0.3zm8.1-28.3q-0.6 0.6-1.2 1.7-0.5 1.1-0.7 1.8l-0.2 0.3q-2 4.6-2.4 9.9-0.2 5.1-0.2 10.4 0 0.9 0 1.7 0.1 0.7 0.1 1.6 0.6 0 1.1 0 0.6 0 1.2 0.1h0.6 1.6q0.2-0.3 0.3-1 0.1-0.8 0.3-1.3v-0.8q1.4-7.1 0.9-14.3-0.1-2.4-0.3-5.1-0.3-2.6-1.1-5zm-4.1 1.1l-0.1 0.3q-2.1 4.6-2.3 9.9-0.2 5.1-0.2 10.4v3.7 1.7q0.2 0 0.3 0.1 0.3 0 0.5 0v-3.1q-0.1-5.4 0.2-10.7 0.4-5.2 2.4-10.2l0.2-0.2q0.6-1.3 1.2-2.5 0.6-1.3 1.4-1.9v-0.2q-0.2-0.3-0.5-0.7-0.1-0.5-0.3-0.5-0.2-0.1-0.4 0.2-0.7 0.3-1.4 1.6-0.6 1.2-1 2.1zm59.8 32.4q0.1 7.3 0.1 14.9 0 7.5-0.3 15.1 0 1.7-1 2.6-1.1 1-2.8 1-1.2 0-2.3-0.6-1.1-0.7-1.3-2.1-2.2-0.9-2.2-3.3 0.3-12.3 0.2-24.1 0-12-0.6-23.9-0.2-0.7-0.2-2.5 0-2.6-0.2-5.3-0.1-2.8-1.1-4.8-1.1-0.7-2.7-0.7-1.8 0.1-3.3 1.6-1.4 1.5-2.6 3.5-1.1 2.1-1.8 4.2-0.7 2.2-1.1 3.6l-1 52.1q0 1.8-1.2 2.8-1 0.8-2.4 0.9-1.3 0-2.4-0.7-1-0.7-1.4-2-2.2-0.9-2.2-3.4l0.9-50.3q-0.3-0.7 0-1.7 0-0.6 0.1-0.8l0.2-15.8q0-1.7 1.1-2.7 1.1-0.9 2.8-0.9 2.9 0 3.6 2.6 0.5 0.2 0.5 0.2 2-1.5 3.8-2.2 1.8-0.9 4.4-0.9 4 0 7.6 2.3 1.9 1.6 3.1 3.2 3.6 3.3 4.3 9.5 1 7.1 1.1 14.3 0.3 7.1 0.3 14.3zm-14.4-34.9h0.4 1.1q-1.3-1.2-3.6-1.2-1.7 0.1-3.2 1.6-1.5 1.5-2.7 3.5-1 2.1-1.9 4.2-0.7 2.2-1.1 3.6l-0.8 52.1q0 1.8-1.4 2.9-1 0.8-2.4 0.8 0.7 1.1 2.2 1.1 0.9 0 1.6-0.5 0.7-0.6 0.7-1.9l1-52.2q0.3-1.7 1.2-4.1 0.8-2.4 2.1-4.5 1.4-2.2 3-3.8 1.7-1.5 3.8-1.6zm7.5 64.6q0.3 0.2 0.9 0.2 1 0 1.5-0.5 1-0.6 1-1.8 0.2-7.7 0.2-15.1 0-7.6-0.1-14.9-0.1-1.2-0.1-2.4 0-1.2 0-2.5-0.1-5.9-0.4-11.8-0.1-6-0.8-11.8-0.6-6-4.8-9.3-3-2.2-6.9-2.2-0.8 0-1.6 0.1-0.8 0.2-1.5 0.4-1.7 0.6-3.2 1.6-1.5 0.9-2.5 2.4l-1.1 1.3v-3.1-0.4q-0.4-1.9-2.5-1.9-0.9 0-1.7 0.5-0.7 0.4-0.7 1.8l-0.4 16q0 0.5-0.1 0.9 0 0.8 0.1 1.2v0.1l-0.8 50.4q0 1.3 0.6 1.8 0.6 0.4 0.9 0.5 0.3 0.1 0.9 0.1 1 0 1.6-0.5 0.9-0.8 0.9-1.9l0.9-52.2q0.4-1.8 1.2-4.2 0.9-2.4 2.2-4.6 1.3-2.1 3-3.7 1.8-1.5 4-1.5 3.8 0 5.6 3.4l1.1 2.1-0.4-0.1q0.6 2 0.7 4.4 0.2 2.4 0.2 4.6v2.5q0.6 11.9 0.7 23.9 0.1 11.8-0.1 24.1-0.2 1.2 0.4 1.7 0.8 0.3 1.1 0.4zm5.4 0.3q0.3-7.7 0.3-15.1 0.1-7.5-0.2-14.9 0-1.2 0-2.4 0-1.2-0.1-2.5-0.1-5.9-0.3-11.8-0.2-6-0.8-11.8-0.3-2.8-1.2-4.4 0.3 1.2 0.4 1.9 1 7.2 1.1 14.3 0.1 7.1 0.1 14.3 0.4 14.6 0 30-0.1 1.8-1.4 2.9-1.1 0.7-2.6 0.7 0.8 1.1 2.3 1.1 1 0 1.7-0.5 0.7-0.6 0.7-1.8zm12.1-62.3q1.6-4.8 4.4-8.4 2.7-3.7 8.2-3.7 1.4 0 2.4 0.1 1.2 0.1 2.3 0.4-0.1-5.4-0.2-10.7 0-5.4-0.3-10.7-0.1-1.7 0.9-2.5 1.1-1 2.4-1.1 1.4 0 2.5 0.6 1.2 0.5 1.7 2 2.1 1 2.1 3.4 1.4 43.9 0.4 88.2 1.2 2.3-0.1 4.2v0.8q0 1.7-1.2 2.8-1.1 1-2.7 1-1.6 0-2.7-1.1-1.8 0.3-3.5 0.3-3.5 0-6.5-1.4-3-1.6-5-4.4-0.7-0.8-1.5-1.6-0.6-0.8-1.2-1.8-2.7-4.9-3.2-10.8-0.5-6-0.4-11.8v-5.2q-0.1-1.6-0.2-3 0-1.5 0-3-0.4-5.8-0.4-11.4 0.2-5.8 1.8-11.2zm-0.2 22.4q0.1 1.6 0.1 3.2 0.1 1.4 0.1 2.8 0.2 1.4 0.2 2.7 0 1.3 0 2.7-0.2 5.7 0.2 11.6 0.5 5.7 3.2 10.4 0.8 1.4 1.8 2.5l0.3-0.1 0.3 0.7q3.6 3 8.3 3 2.2 0 3.7-0.5l0.5-0.1 0.3 0.4q0.7 0.9 2 0.9 2.3 0 2.5-2.4v-1.3l0.1-0.1q0.6-0.7 0.5-1.6 0-0.9-0.5-1.5v-0.4q1-44.4-0.3-88.3v-0.4q-0.3-1-1.1-1.5-0.8-0.5-1.8-0.5-0.7 0.1-1.4 0.7-0.8 0.5-0.6 1.7 0.2 5.4 0.2 10.9 0.1 5.5 0.2 11.3v0.8l-0.7-0.2q-2.6-0.6-5.3-0.6-4.9 0-7.5 3.5-2.5 3.3-3.9 7.7-1.6 5.2-1.6 10.9 0 5.5 0.2 11.1zm5.2-16.4q0.2-1.7 0.7-3.7 0.6-2.2 1.5-4 1-1.8 2.4-3 1.5-1.2 3.6-1.2 2.2 0 5.1 0.9l0.5 0.1v3.2q0.3 28.8-0.4 57.5v0.4l-0.4 0.1q-2.1 0.9-3.7 0.9-1.2 0-2.3-0.3l0.5 0.7-2.4-1.8q-2.5-1.8-3.6-6-1.2-4.1-1.4-8.4-0.1-4.3 0-8.5 0-1.3 0-2.7 0-1.4-0.1-2.7 0-1.3-0.2-2.8 0-1.4 0-2.7-0.2-4-0.3-8-0.1-4 0.5-8zm3.2 18.4q0 1.3 0 2.7 0.1 1.5 0.2 2.8v5.4q0 4.2 0.2 8.5 0.1 4.2 1.2 8 0.6 2 1.2 3 1.6 1.1 3.3 1.1 1.3 0 2.9-0.6 0.2-14.3 0.4-28.5 0.1-14.3-0.2-28.7-1.4-0.3-2-0.3-2.2 0-3.4 1.2-1.6 2.1-2.5 4.8-0.8 2.7-1.1 4.8-0.6 3.9-0.6 7.8 0.2 4 0.4 8zm12.5 39.6l0.1 0.2q0.8 0.8 2 0.8 0.6 0 0.9-0.1 0.3-0.1 0.9-0.6 0.8-0.5 0.8-1.7v-1.3l0.1-0.1q0.6-0.7 0.5-1.6 0-0.9-0.4-1.5l-0.1-0.1v-0.3q1.1-44.4-0.4-88.3 0-1-0.7-1.7 1.3 43.6 0.4 87.5 1.2 2.3-0.2 4.2v0.8q-0.2 2.8-2.6 3.5-1 0.3-1.3 0.3zm-14.7-42.2q0.2 1.5 0.2 2.9 0.1 1.5 0.1 2.8 0.2 2.6 0 5.4 0 4.2 0.1 8.5 0.2 4.2 1.3 8 0.1 0.9 0.6 1.7-0.9-3.8-1.1-7.8-0.1-4.1-0.1-8v-5.4q-0.1-1.3-0.1-2.8 0-1.4-0.1-2.7-0.3-4-0.4-8 0-4 0.6-8 0.3-1.7 0.7-3.7 0.5-2.1 1.5-3.9 0.9-1.8 2.4-3 1.4-1.3 3.5-1.3 0.6 0 1 0.1 0.6 0 1.2 0.2v-0.8q-2.4-0.6-4.2-0.6-2.2 0-3.2 1.2-1.7 2.1-2.5 4.8-0.9 2.7-1.2 4.8-0.6 3.9-0.6 7.8 0.1 4 0.3 7.8zm3.8 40.7q3.1 1.9 6.8 1.9 2 0 3.6-0.4v-0.2q-1.2 0-2.2-0.9-1.8 0.3-3.6 0.3-2.5 0-4.6-0.7zm55.4-10.3q1.1 4.9-1.3 9.1-2.4 4.1-7.1 5.2-1.2 0.3-2.8 0.3-6.1 0-10-5.6-2.1-1.9-3.2-4.3-2-4-2.6-8.3-0.6-4.4-1-8.6-0.2-2.1-0.3-4.1 0-2.2-0.1-4.6-0.9-1.4-0.2-3.3 0-2.3 0-4.4 0.2-2.1 0.2-3.9v-0.6q0-3.3 0.2-7.7 0.2-4.6 1.1-8.9 0.9-4.4 2.9-8.1 2-3.8 5.4-5.3 1.9-0.9 3.1-0.9 3.8 0 6.8 4.5 2.4 1.9 3.5 5.1 1.7 4.6 2 9.5 0.4 4.9 0.3 8.8 0 2.3-0.3 4.7-0.2 2.2-0.7 4.8 0 0.6-0.1 0.9-0.4 2.8-1 4.7-0.6 1.8-1.6 3-1.1 1.1-3 1.6-1.8 0.4-4.7 0.4-1.1-0.1-2.2-0.1-0.9-0.1-2.1-0.2 0 1.8 0.1 4.7 0.2 2.7 0.6 5.7 0.5 2.9 1.1 5.7 0.7 2.7 1.6 4.3 1 0.5 1.5 0.6 1.1 0 1.9-0.1 0.8-0.3 1.7-1.1 1.5-1.7 0.9-4-0.4-1.8 0.5-3 1.1-1.2 2.5-1.5 0.3-0.2 1-0.2 1.1 0 2 0.6 1 0.6 1.2 2.1 1.8 0.8 2.2 2.5zm-4.4-36.2q0.1-3.5-0.3-8.2-0.2-4.8-1.8-9.1 1 3.9 1.2 7.9 0.3 4 0.1 7.1-0.1 2.3-0.3 4.7-0.1 2.2-0.6 4.8 0 0.2-0.1 0.4 0 0.3 0 0.5-0.3 1.9-0.9 4-0.5 2-1.8 3.5-1.2 1.4-2.9 1.8-1.5 0.3-3.2 0.3-1.6 0-3 0-1.4-0.1-2.9-0.2 0.1 5.3 0.6 9.3 0.5 4 1.5 7.6 0.3 1 0.6 1.8-1-3.5-1.5-7.6-0.3-4-0.5-9.4v-0.8l0.8 0.2q1.3 0.1 2.5 0.2 1.2 0 2.4 0.1h0.8q4.9 0 6.3-2 1.3-2.1 1.9-6.5 0.1-0.2 0.1-0.5 0-0.3 0.1-0.6 0.4-2.4 0.6-4.7 0.3-2.4 0.3-4.6zm-15.9 44.2q3.1 2.9 7.2 2.9 0.9 0 2.3-0.2 4.1-1 6.2-4.6 2.2-3.7 1.2-7.9v-0.4q-0.2-0.9-0.8-1.3-0.6-0.3-1.2-0.3-0.2 0-0.4 0.1-0.1 0-0.3 0-1 0.2-1.7 0.9-0.6 0.8-0.4 2.1 0.8 2.9-1.2 5-1.6 1.7-3.8 1.7-0.6 0-0.8-0.1h-0.4l0.4 0.7-2.3-1.6q-1.9-1.3-3.1-4.5-1.1-3.3-1.7-7-0.6-3.8-0.9-7.4-0.2-3.6-0.2-5.5v-0.8l0.7 0.2q1.3 0.1 2.5 0.2 1.2 0 2.4 0.1h0.9q2.4 0 3.8-0.5 1.6-0.6 2.4-1.5 0.9-1.1 1.2-2.7 0.4-1.6 0.7-3.8 0.2-0.4 0.2-1.1 0.4-2.4 0.6-4.7 0.2-2.4 0.3-4.6 0.1-3.6-0.2-8.4-0.3-5-1.9-9.3-0.6-1.7-1.4-2.5-0.6-1-2.1-2.4-1.5-1.4-3.7-1.4-2.2 0-4 1.4-1.7 1.4-2.9 3.5-1.2 2-2 4.4-0.7 2.3-1.1 4-1 3.9-1.2 8-0.1 4.1-0.1 8.2v0.6q-0.1 1.9-0.1 4.1 0 2 0 4.3v0.2q-0.8 1.3 0 2.5l0.1 0.2v0.2q0 3 0.1 7.1 0.2 4.1 0.8 8.3 0.8 4 2.1 7.8 1.4 3.7 3.8 5.8zm11.7 5.1q4-1 6.2-4.7 2.2-3.7 1.1-8-0.1-0.8-0.5-1.2 0.5 4.5-2 8.1-2.4 3.6-6.6 4.6-1.5 0.3-2.9 0.3-1.6 0-3.4-0.6 2.7 1.7 5.7 1.7 0.6 0 1.2 0 0.6-0.1 1.2-0.2zm-13.7-38.2v-0.6-2.3-3.7q0-5.4 0.2-10.7 0.4-5.2 2.4-10.2l0.1-0.2q0.6-1.4 1.2-2.6 0.8-1.2 1.7-1.8 1-0.3 1.1-0.3h0.4q0.9 0.4 1.5 2.1h0.1q0.3 0.4 0.3 0.8l0.3 0.6h-0.1q1 2.5 1.2 5.4 0.3 2.8 0.4 5.2 0.2 3.8 0 7.5-0.3 3.6-1 7.1 0 0.5-0.1 0.7-0.2 2.5-0.8 3.1-0.5 0.5-1.5 0.5-0.2 0-0.9 0-0.8-0.1-0.9-0.2-0.5 0-1.1 0-0.4 0-1-0.1h-0.8q-0.7 0-2.1-0.3zm8-28.3q-0.6 0.6-1.2 1.7-0.5 1.1-0.7 1.8l-0.1 0.3q-2.1 4.6-2.4 9.9-0.3 5.1-0.3 10.4 0 0.9 0 1.7 0.2 0.7 0.2 1.6 0.6 0 1 0 0.6 0 1.2 0.1h0.6 1.6q0.2-0.3 0.4-1 0.1-0.8 0.2-1.3v-0.8q1.4-7.1 1-14.3-0.2-2.4-0.4-5.1-0.2-2.6-1.1-5zm-4.1 1.1l-0.1 0.3q-2 4.6-2.3 9.9-0.2 5.1-0.2 10.4v3.7 1.7q0.2 0 0.4 0.1 0.2 0 0.4 0v-3.1q-0.1-5.4 0.3-10.7 0.3-5.2 2.4-10.2l0.1-0.2q0.6-1.3 1.2-2.5 0.6-1.3 1.4-1.9v-0.2q-0.2-0.3-0.4-0.7-0.2-0.5-0.4-0.5-0.1-0.1-0.4 0.2-0.7 0.3-1.4 1.6-0.6 1.2-1 2.1zm59.8 32.4q0.1 7.3 0.1 14.9 0 7.5-0.2 15.1 0 1.7-1.1 2.6-1.1 1-2.8 1-1.2 0-2.2-0.6-1.1-0.7-1.4-2.1-2.1-0.9-2.1-3.3 0.2-12.3 0.1-24.1 0-12-0.6-23.9-0.1-0.7-0.1-2.5 0-2.6-0.3-5.3-0.1-2.8-1-4.8-1.1-0.7-2.8-0.7-1.8 0.1-3.2 1.6-1.5 1.5-2.7 3.5-1.1 2.1-1.8 4.2-0.7 2.2-1.1 3.6l-0.9 52.1q0 1.8-1.2 2.8-1.1 0.8-2.4 0.9-1.3 0-2.4-0.7-1.1-0.7-1.5-2-2.1-0.9-2.1-3.4l0.8-50.3q-0.2-0.7 0-1.7 0-0.6 0.1-0.8l0.3-15.8q0-1.7 1.1-2.7 1-0.9 2.7-0.9 2.9 0 3.6 2.6 0.5 0.2 0.5 0.2 2-1.5 3.8-2.2 1.8-0.9 4.5-0.9 3.9 0 7.5 2.3 2 1.6 3.2 3.2 3.6 3.3 4.3 9.5 0.9 7.1 1.1 14.3 0.2 7.1 0.2 14.3zm-14.4-34.9h0.5 1.1q-1.4-1.2-3.6-1.2-1.7 0.1-3.3 1.6-1.4 1.5-2.6 3.5-1.1 2.1-1.9 4.2-0.8 2.2-1.1 3.6l-0.9 52.1q0 1.8-1.4 2.9-1 0.8-2.4 0.8 0.7 1.1 2.3 1.1 0.8 0 1.5-0.5 0.8-0.6 0.8-1.9l0.9-52.2q0.4-1.7 1.2-4.1 0.9-2.4 2.2-4.5 1.3-2.2 3-3.8 1.7-1.5 3.7-1.6zm7.6 64.6q0.2 0.2 0.8 0.2 1.1 0 1.6-0.5 0.9-0.6 0.9-1.8 0.3-7.7 0.3-15.1 0-7.6-0.2-14.9-0.1-1.2-0.1-2.4 0-1.2 0-2.5-0.1-5.9-0.3-11.8-0.2-6-0.9-11.8-0.6-6-4.8-9.3-3-2.2-6.8-2.2-0.9 0-1.7 0.1-0.7 0.2-1.4 0.4-1.7 0.6-3.3 1.6-1.4 0.9-2.5 2.4l-1.1 1.3v-3.1-0.4q-0.3-1.9-2.5-1.9-0.8 0-1.7 0.5-0.7 0.4-0.7 1.8l-0.4 16q0 0.5-0.1 0.9 0 0.8 0.1 1.2v0.1l-0.8 50.4q0 1.3 0.6 1.8 0.6 0.4 1 0.5 0.2 0.1 0.8 0.1 1.1 0 1.7-0.5 0.8-0.8 0.8-1.9l1-52.2q0.3-1.8 1.2-4.2 0.8-2.4 2.1-4.6 1.4-2.1 3-3.7 1.8-1.5 4-1.5 3.8 0 5.6 3.4l1.1 2.1-0.3-0.1q0.6 2 0.7 4.4 0.1 2.4 0.1 4.6v2.5q0.6 11.9 0.7 23.9 0.1 11.8-0.1 24.1-0.1 1.2 0.5 1.7 0.7 0.3 1.1 0.4zm5.4 0.3q0.2-7.7 0.2-15.1 0.1-7.5-0.1-14.9 0-1.2 0-2.4 0-1.2-0.1-2.5-0.2-5.9-0.4-11.8-0.1-6-0.7-11.8-0.4-2.8-1.2-4.4 0.2 1.2 0.3 1.9 1 7.2 1.1 14.3 0.1 7.1 0.1 14.3 0.4 14.6 0 30-0.1 1.8-1.4 2.9-1.1 0.7-2.5 0.7 0.7 1.1 2.3 1.1 0.9 0 1.6-0.5 0.8-0.6 0.8-1.8zm41.8-6.9q0.4 2.1-0.9 3.4-1.7 2-4.5 4.2-2.6 2-6.4 2.6-0.6 0.2-1.8 0.2-6 0-9.5-5.2-1.2-1.2-2.1-2.5-1.6-2.7-2.5-5.8-0.8-3.1-1.4-6.1-1-4-1.6-8.2-0.5-4.3-0.8-8.4-0.5-6-0.5-14.1 0-8.2 1.9-16.1 1.1-4.3 4.1-7.7 3-3.5 7.8-3.5 0.8 0 2 0.4 1.4 0.2 2.4 0.8 1.2 0.5 2.2 1.4 1 0.7 1.1 1.6 0.7 0.5 0.9 0.8 1.4 1.2 1.2 2.6 0 1.3-0.8 2.3-1.4 1.4-3.1 1.4-1.5 0-2.5-0.9-0.4-0.4-1.1-0.4h-0.5q-1 0.2-1.9 1.1-0.9 0.7-1.3 1.5-1 1.8-1.4 4-0.3 2.2-0.6 4.2v0.8q-0.6 5.6-0.7 11.1 0 5.5 0.5 11 0.1 1.8 0.5 5.2 0.3 3.3 0.9 6.9 0.6 3.6 1.4 6.9 0.8 3.1 1.8 4.7 0.9 0.3 1.9 0.3 2-0.2 3.7-1.5 1.7-1.5 3.2-3.3 1.1-1.3 2.7-1.3 0.2 0 0.3 0.1 0.2 0 0.4 0 2.2 0.6 2.8 2.8 1.6 0.7 2.2 2.7zm-16.5-58.5q0.2 0 0.3 0 0.2-0.1 0.4-0.1-0.4-0.2-1.1-0.6-0.5-0.5-1.5-0.5-1.6 0.3-2.6 1.7-0.9 1.2-1.5 2.8-0.5 1.7-0.7 3.5-0.3 1.7-0.4 2.9l-0.1 0.8q-0.6 5.6-0.7 11.1 0 5.5 0.4 11 0.6 6.3 1.5 11.5 0.9 5.3 2.4 10 0 0.2 0.2 0.7-2.4-8.6-3.2-19.7-0.9-10.8 0.2-22.3l0.1-0.8q0.3-2.1 0.6-4.3 0.4-2.3 1.4-4.4 0.6-1 1.8-2 1.2-1.1 2.5-1.3zm6.1-2.8h-0.1q-0.5 1.7-1.9 2.4-0.9 0.6-2.3 0.6 0.5 0.3 0.7 0.5 0.6 0.6 1.7 0.6 1.2 0 2.1-1 0.5-0.6 0.6-1.4 0.2-0.8-0.8-1.7zm-11.8 65.7q2.1 1.6 3.9 2 1.8 0.2 4.2 0.2 5.1-0.8 10.2-6.4 0.6-0.6 0.6-1.2 0.1-0.6 0-1.1-0.4-1.7-2.1-2.1-0.1-0.1-0.4-0.1-0.9 0-1.6 0.9-1.3 1.4-3.2 3.2-1.8 1.7-4.6 1.9-0.1 0.1-0.5 0.1-0.2 0-0.3 0-0.2-0.1-0.4-0.1l0.2 0.6-1.9-1.2q-1.9-1.1-3.2-4.7-1.2-3.7-2.1-7.9-0.8-4.3-1.3-8.3-0.3-4-0.6-6-0.9-11.2 0.4-22.3v-0.8q0.2-2.2 0.6-4.3 0.3-2.3 1.4-4.4 0.6-1 1.7-2 1.2-1.1 2.5-1.3 0.3-0.1 0.7-0.1 1.2 0 2 0.8 0.8 0.6 1.6 0.6 0.9 0 1.4-0.4 1.6-1 1.3-2.5-0.3-0.7-0.7-1.2-2.6-2.1-5.7-2.1-4.3 0-7.1 3.1-2.6 3.1-3.6 6.9-2 7.8-2 16 0.1 8 0.6 13.9 0.4 3.9 0.8 7.6 0.5 3.7 1.4 7.4 0 0.5 0.2 1.5 0.6 2.8 1.3 6 0.7 3 2.4 5.4 0.4 0.7 0.9 1.3 0.4 0.5 1 1.1zm20.3-1.8q0.6-0.6 0.6-1.2 0.1-0.6 0-1.1-0.2-0.9-0.7-1.3-0.2 1.5-1.7 3.1-1.4 1.4-3.2 2.7-1.8 1.2-3.7 2.1-2 0.7-3.3 0.9-0.6 0.2-1.8 0.2-1.9 0-3.3-0.5 2.6 1.7 5.6 1.7 1 0 1.4-0.2 5.2-0.8 10.1-6.4zm6.4-34q0-1.2 0.1-1.8 0.1-3.1 0.2-6.2 0.3-3.2 1.2-6 1.4-4.2 4.4-6 3-2 7.2-2 3 0 5.8 0.9 0-1.5-0.1-2.9-0.1-1.6-0.6-2.9-0.7-0.2-1.2-0.2-0.2 0-0.5 0.1-0.2 0-0.4 0-1 0.2-1.8 0.5-0.9 0.2-1.8 0.5-1.4 0.3-2.7 0.7-1.2 0.2-2.5 0.3h-0.4q-1.4 0-2.2-0.7-0.8-0.8-1-1.9-2.4-0.8-2.2-3.5 0-1.3 0.9-2.4 0.9-1.2 2.6-1.4 1.2-0.1 2.3-0.4 1.1-0.3 2.3-0.7 1.3-0.4 2.7-0.7 1.5-0.4 3-0.4 4.7 0 7.8 3.7 0.3 0.3 0.4 0.6 0.2 0.3 0.5 0.6 0.3 0.3 0.6 0.6 0.3 0.4 0.6 0.6 2.7 3.5 3.1 7.8 0.4 4.2 0.1 8.4v1.8l-1.7 50.9q0 1.8-1.2 2.8-1.2 0.8-2.5 0.9h-0.1q-1 0-2-0.4-1-0.6-1.5-1.8-2.3 1.8-5 1.8-0.7 0-1.9-0.3-4.1-1.1-6.4-4.7-1.8-1.5-2.9-3.8-1.1-2.3-1.7-4.8-0.6-2.6-0.8-5.3-0.2-2.7-0.4-5.1-0.1-0.8-0.1-2.2-0.2-3.7-0.3-7.4-0.2-3.8 0.1-7.6zm1.5 15q0 0.5 0 1.1 0 0.5 0.2 1.1 0.1 2.6 0.3 5.8 0.3 3.2 1.1 6 1 2.9 2.6 5.2 1.8 2.3 5 3 0.4 0.1 0.8 0.2 0.4 0 0.8 0 2.8 0 5.1-2.2l1.1-1v1.4q0 1 0.4 1.5 0.5 0.5 1 0.6 0.1 0.1 0.2 0.1 0.3 0.1 0.6 0.1 1.1 0 1.8-0.6 0.9-0.7 0.9-1.8l1.7-51v-1.7q0.2-3.6 0-7.3-0.3-3.8-2.2-6.9-0.4-0.8-0.7-1.1-2.7-3.3-6.9-3.3-1.4 0-2.7 0.4-1.3 0.2-2.7 0.7-1.2 0.4-2.4 0.7-1 0.3-2.4 0.4-1.2 0.1-1.8 0.8-0.4 0.8-0.6 1.7 0 0.9 0.4 1.6 0.4 0.6 1.2 0.8h0.7q1.3-0.1 2.5-0.3 1.2-0.4 2.6-0.8 0.9-0.2 1.8-0.4 0.8-0.3 1.8-0.5 0.4-0.1 1.2-0.1 3.1 0 4.5 3.3l0.5 1.3h-0.1q0.3 1.4 0.3 2.9 0.2 1.5 0.2 2.9l-0.2 1.1-0.8-0.3q-3.2-1-6.2-1-3.8 0-6.4 1.5-2.6 1.6-3.8 5.4-1 2.8-1.2 5.8-0.2 3-0.4 6.1v1.9q-0.2 3.7-0.1 7.5 0.1 3.7 0.3 7.4zm5.4-24v-0.1q0.4-3.1 1.5-4.9 1.1-2 4.5-2 2 0 3.8 0.6 1.8 0.6 3 1.2l0.3 0.3v1.9l-0.1 0.4v2.4l-1 31.5-0.1 0.1q-0.2 1.2-0.8 2.4-0.6 1.1-1.2 2.1-0.3 0.5-0.5 0.8-0.2 0.4-0.5 0.9-0.1 0.1-0.1 0.2 0 0.1-0.1 0.4-0.6 0.9-1.2 1.9-0.6 0.9-1.6 1.2-0.1 0.1-0.5 0.1l0.3 0.6-1.7-1q-0.2-0.1-0.4-0.1 0-0.1-0.2-0.2-1.7-1.3-2.3-3.5-0.5-2.3-0.7-4.2 0-0.7-0.1-1-0.4-2.7-0.6-5.4-0.1-2.7-0.4-5.6-0.5-11.5 0.7-21zm2.7 23.4q0.2 2.8 0.3 5.5 0.3 2.7 0.6 5.4 0.2 0.3 0.2 0.9 0.2 1.3 0.3 2.5 0.1 1.2 0.6 2.3 0.6 0.2 0.9 0.1 0.6-0.3 1-1 0.5-0.8 0.9-1.5 0.2-0.5 0.3-0.6 0.4-0.9 1-1.7 0.6-1 1.1-1.9 0.6-1.1 0.8-2.2l1-31.4q0-1.6 0.1-2.3v-0.1q-1.8-0.6-3.8-0.6-0.8 0-2 0.2-1.5 0.6-2 2.3-0.4 1.5-0.6 3.2-1.2 9.5-0.7 20.9zm11.3 24.7q0.2 0.6 0.8 1 0.7 0.2 1.3 0.2 1-0.1 1.7-0.6 0.7-0.6 0.8-1.8l1.6-51v-1.8q0.2-3.1 0.1-6.2-0.1-3.3-1.3-6.1 0.6 2.5 0.6 5.1 0 2.5-0.1 4.9 0 1.2-0.1 1.8l-1.6 50.9q0 1.7-1.4 2.9-1.1 0.7-2.4 0.7zm-13.4-27.1q0.3 2.8 0.4 5.5 0.2 2.7 0.6 5.4 0 0.3 0 0.5 0.1 0.1 0.1 0.4 0.3 1.3 0.4 2.7 0.2 1.3 0.8 2.5-0.2-0.7-0.3-1.3 0-0.7-0.2-1.3v-1q-0.3-2.7-0.6-5.4-0.2-2.7-0.3-5.6-0.3-5.9-0.1-11 0.1-5.2 0.7-10 0.2-3.1 1.3-5 1.2-2 4.7-2 1.9 0 3.7 0.6v-0.2q-1-0.5-2.6-1-1.6-0.4-3.3-0.4-0.7 0-1.9 0.2-1.7 0.6-2.2 2.3-0.3 1.5-0.6 3.2-0.6 4.8-0.7 10-0.1 5 0.1 10.9zm-2.4-39.4q0.5 1.1 2.1 1.1 1.3-0.1 2.4-0.3 1.2-0.4 2.5-0.8 1-0.2 1.8-0.4 1-0.3 1.9-0.4 0.5-0.1 1.2-0.1h0.5q-0.8-1.2-2.5-1.2-0.3 0-0.6 0.1-0.3 0-0.5 0-1 0.2-1.8 0.5-0.8 0.1-1.7 0.3-1.3 0.4-2.6 0.8-1.2 0.2-2.7 0.4zm4.6 65.7q1 0.6 2.2 1.1 1.2 0.4 2.5 0.4 1.3 0 2.3-0.3 1-0.5 1.8-1.1-0.8-0.6-1.1-1.4-2.3 1.8-5.2 1.8-0.7 0-1.9-0.3-0.1-0.1-0.2-0.1-0.2 0-0.4-0.1zm37.7-83.3v2.3q-0.1 1.4-0.3 2.9 0 1.4 0 3 1.5-0.2 2.9-0.3 1.5-0.1 2.8-0.3 0.3-0.2 0.8-0.2 1.5 0 2.4 0.9 1 0.8 1.2 1.9 2.5 1.2 2.3 4-0.2 2.6-2.8 3-2.5 0.6-5 0.7-2.4 0.1-4.9 0.1-0.3 2.9-0.3 5.6 0 2.8-0.1 5.4-0.2 13.6 0 27.3 0.3 13.7 0.9 27.5 0.1 1.6-1 2.6-1 0.8-2.2 1-1.4 0-2.6-0.5-1.1-0.6-1.6-2.3-2-0.7-2.2-3.2-1.5-30.8-0.8-61 0.2-1.8 0.2-3.6 0-1.9 0.1-3.8-0.5-1.4-0.1-2.6 0-0.2 0.2-0.7v-0.8q0.1-1 0.1-1.9 0-1.1 0.1-2.1 0-0.9 0-1.9 0-1 0.2-1.9 0-3.9 0.1-7 0.2-3.2 1.4-5.6 1.2-2.4 3.9-3.7 2.6-1.4 7.4-1.4 1.2 0 2.3 0.2 1.1 0 2 0.1 2.4 0.2 3.3 2.7 1.4 0.6 1.9 2.1 0.6 1.3 0.3 2.6-0.4 1.5-1.4 1.9-0.8 0.5-2.2 0.5-0.9-0.1-2-0.1-1-0.1-1.9-0.1-0.6 0-2.5 0.2-1.8 0.1-2.3 0.6 0 0-0.3 1v0.2q-0.2 1.1-0.2 2.3 0 1.2-0.1 2.4zm9.6 13.3q-0.9 1.2-2.3 1.5-2.6 0.6-5 0.7-2.4 0-5.1 0-0.1 3-0.2 5.7 0 2.8 0 5.4-0.3 13.6-0.1 27.3 0.2 13.7 0.9 27.5 0 1.9-1.3 2.8-1.2 0.8-2.5 0.8 0.7 1 2.5 1 0.8 0 1.4-0.4 0.8-0.6 0.6-1.8-0.6-13.8-0.8-27.5-0.2-13.7 0-27.3 0.1-2.7 0.1-5.6 0.1-3 0.3-6.1v-0.7h0.7q0.7 0.1 1.3 0.1 0.7 0 1.4 0 4 0 7.6-0.7 1.1-0.3 1.3-0.9 0.4-0.6 0.5-1.1 0-1.3-0.8-2.1-0.2 0.3-0.3 0.8 0 0.4-0.2 0.6zm-4-4.5q-3 0.6-6 0.6h-0.6l-0.1 0.1q-0.6 0-1.1 0-0.5-0.1-0.9-0.1h-0.8v-0.8q0.3-2.7 0.4-5.5 0.1-2.7 0.1-5.5 0.1-1.3 0.1-2.5 0-1.2 0.3-2.4v-0.3q0.2-1.2 0.5-1.5 0.3-0.4 1.5-0.7 1.7-0.6 4.2-0.6 2.3 0 4.2 0.3 1.2 0 1.7-0.6 0.8-0.8 0.5-2.3-0.5-1.8-2.3-2.1-1-0.1-1.9-0.1-1-0.2-2.1-0.2-3.4 0-6.9 1.4-3.4 1.2-4.1 5.2-0.5 2.4-0.6 5-0.1 2.5-0.1 5-0.1 1-0.1 1.9 0 1 0 1.9-0.2 1-0.2 2 0 0.9-0.1 1.9v1.2l-0.1 0.1q-0.2 0.5-0.2 0.6-0.3 1 0.2 1.8v0.2q-0.1 2-0.1 3.9 0 1.9-0.1 3.7-0.8 30.2 0.7 61 0 1 0.6 1.5 0.7 0.5 1.1 0.6 0.7 0.3 1 0.3 0.6 0 1.4-0.5 0.8-0.7 0.8-1.9-0.6-13.8-0.8-27.5-0.3-13.7 0-27.3 0.1-2.7 0.1-5.6 0-3 0.2-6.1v-0.7h0.6q0.7 0.1 1.5 0.1 0.7 0 1.4 0 4 0 7.6-0.7 0.8-0.2 1.4-1 0.4-0.8 0.2-1.8-0.4-1.4-1.2-1.7-0.6-0.3-1.9-0.3zm-6.6-13.7l0.1-0.3q0.3-1.2 0.5-1.5 0.3-0.4 1.5-0.7 1.6-0.6 4.2-0.6 2.2 0 4.2 0.3 1.2 0.1 1.5-0.5 0.5-0.6 0.6-0.9 0.5-1.6-0.7-2.8 0 1.2-0.8 2.1-0.8 1-2.2 1-0.1 0-0.2 0-0.2-0.1-0.4-0.1-1-0.1-2-0.1-1-0.1-2.1-0.1-0.6 0-2.4 0.2-1.8 0.1-2.3 0.6 0 0-0.2 1v0.2q-0.4 2.2-0.4 4.7v2.3q-0.2 1.8-0.2 3.8 0 1.9-0.2 4.3 0.3 0.2 0.9 0.2 0-1.6 0-3 0.1-1.5 0.3-3 0-1.5 0.1-2.2 0-1.3 0-2.5 0-1.2 0.2-2.4zm44.7 76.9q1.2 4.9-1.4 9-2.4 4.1-6.9 5.2-1.2 0.3-2.8 0.3-2.9 0-5.5-1.4-2.6-1.5-4.4-4.2-2.1-1.9-3.2-4.3-1.2-2.4-2-5.6-0.7-3.2-1.2-6.7-0.5-3.5-0.7-6.8-0.1-3.5-0.1-6.3-1-1.4-0.2-3.4 0-2.2 0-4.2 0-2.2 0.2-4v-0.6q0-3.2 0.2-7.7 0.2-4.4 1.1-8.7 0.9-4.5 2.9-8.1 1.9-3.7 5.2-5.4 1.7-0.7 3.2-0.7 3.9 0 6.8 4.3 2.4 2.3 3.5 5.2 1.7 4.5 2 9.5 0.4 4.9 0.3 8.6-0.2 2.3-0.4 4.7-0.1 2.3-0.6 4.8 0 0.2-0.1 0.5 0 0.2 0 0.4-0.3 1.8-0.7 4-0.5 2-1.8 3.5-1.4 1.3-3 1.8-1.7 0.3-3.4 0.3h-1.4q-1-0.1-2.1-0.1-1.1 0-2.3-0.2 0.2 2.1 0.3 4.8 0.2 2.6 0.6 5.5 0.3 2.8 0.9 5.4 0.8 2.5 1.7 4.6 0.5 0.3 1.6 0.6 0.2 0 0.3 0.1 0.2 0 0.4 0 1.4 0 2.8-1.3 1.5-1.6 0.9-3.9-0.6-2.1 1.1-3.6 1.1-1.1 2.8-1.1 2.6 0 3.3 2.7 1.7 0.6 2.1 2.5zm-4.4-36q0.2-3.5-0.2-8.3-0.2-4.8-1.8-9 1 3.9 1.1 7.8 0.2 4 0.2 7.1-0.1 2.3-0.3 4.7-0.3 2.3-0.6 4.8 0 0.2-0.2 0.5 0 0.2 0 0.4-0.3 2.8-0.9 4.7-0.6 1.8-1.8 2.9-1.1 1.1-2.9 1.6-1.8 0.4-4.7 0.4-1.1-0.1-2.1-0.1-1 0-2.2-0.2 0.2 5.3 0.7 9.3 0.5 4 1.5 7.5 0.1 0.7 0.6 1.9-1.8-6.8-2-16.9l-0.1-0.7h0.9q1.6 0.2 3.2 0.3 1.7 0 3.4 0 4.3 0 5.5-2.4 1.2-2.4 1.7-6.1 0.1-0.2 0.1-0.5 0-0.2 0.1-0.5 0.4-2.4 0.6-4.6 0.2-2.4 0.2-4.6zm-15.8 43.9q3.2 2.9 7.3 2.9 0.7 0 2.2-0.2 4.1-1 6.2-4.6 2.2-3.7 1.2-7.9v-0.4q-0.5-1.2-1.4-1.4-0.3-0.1-0.7-0.1-1.2 0-2 0.7-0.9 0.9-0.7 2.3 0.7 2.8-1.2 5-1.1 1.1-2.1 1.4-1.1 0.3-2.6 0.3-0.1-0.1-0.3-0.1l0.3 0.7-2.1-1.6q-1.9-1.3-3.1-4.4-1.2-3.3-1.8-7-0.6-3.7-0.9-7.3-0.2-3.6-0.2-5.5v-0.7h0.7q1.7 0.2 3.4 0.3 1.6 0 3.3 0 4.3 0 5.4-2.3 1.2-2.4 1.8-6.1 0-0.2 0-0.5 0.1-0.3 0.1-0.6 0.5-2.4 0.6-4.6 0.3-2.4 0.4-4.6 0.1-3.6-0.2-8.4-0.3-4.9-2-9.2-0.9-2.2-2.6-4.2-1.7-2.1-4.3-2.1-2.3 0-4.1 1.5-1.7 1.3-2.9 3.3-1.2 2.1-2 4.3-0.7 2.3-1.1 4.1-1 4-1.2 8.1-0.1 4-0.1 8v0.6q-0.1 1.9-0.1 4.1 0 2 0 4.2v0.3q-0.9 1.5 0 2.4l0.1 0.3v0.1q0 2.9 0.1 7 0.2 4 0.8 8.2 0.8 4.2 2.1 8 1.4 3.6 3.7 5.7zm11.6 5.1q4.1-1 6.2-4.7 2.1-3.7 1.2-8.1-0.2-0.6-0.6-1 0.4 4.4-2 8-2.4 3.6-6.6 4.6-0.7 0.2-1.4 0.2-0.6 0-1.2 0-2 0-3.6-0.5 2.6 1.7 5.6 1.7 0.6 0 1.2 0 0.6-0.1 1.2-0.2zm-13.5-38v-2.8-3.8q-0.1-5.4 0.2-10.5 0.4-5.3 2.4-10.2l0.1-0.3q0.6-1.3 1.2-2.5 0.8-1.3 1.7-1.9 0.5-0.2 0.9-0.2 0.2 0 0.2 0.1 0.1 0 0.4 0 0.6 0.2 0.8 0.8 0.4 0.5 0.7 1.1 0.1 0.4 0.4 0.8l0.2 0.6v0.2q0.9 2.4 1.1 5.2 0.2 2.8 0.4 5.2 0.4 7.3-1 14.5 0 0.5-0.1 0.7-0.3 2.3-0.9 3.2-0.3 0.3-1.3 0.3h-1.3q-0.2-0.1-0.5-0.1-0.6 0-1.2 0-0.5 0-1.1-0.1h-0.7q-0.6-0.1-1.1-0.1-0.3 0-0.9-0.2zm8-28.2q-0.6 0.6-1.2 1.7-0.6 1.1-0.8 1.8l-0.1 0.4q-2.1 4.5-2.4 9.7-0.3 5.2-0.2 10.4v3.2q1.2 0.1 2.3 0.2 1.1 0 2.3 0 0.2-0.2 0.2-1.1 0.2-0.8 0.3-1.2 0-0.7 0.1-0.8 1.3-7.1 1-14.3-0.3-2.4-0.5-4.9-0.3-2.7-1-5.1zm-4.1 1.1l-0.1 0.4q-2 4.5-2.4 9.7-0.2 5.2-0.1 10.4v3.8 1.6q0.5 0 0.7 0.2v-3.2q0-5.4 0.3-10.5 0.3-5.3 2.4-10.2l0.1-0.3q0.6-1.3 1.2-2.5 0.6-1.3 1.4-1.9-0.5-1.1-0.8-1.3h-0.1q-0.2 0-0.3 0.1-0.7 0.4-1.3 1.7-0.6 1.2-1 2zm-3.2-18q-1.4-0.9-1.6-2.4-0.2-1.5 1.1-2.5 5.4-5 7.8-9.8 1-1.7 2.8-1.7 2 0.2 2.9 2 0.9 0.6 1.4 1.8 0.5 1.2-0.1 2.5-2.9 5.7-9 11.3-1.1 0.9-2.2 0.9-0.5 0-0.7-0.2-1.6-0.3-2.4-1.9zm13-11.5q-3 5.9-9 11.2-0.6 0.6-1.7 0.8 0 0 0.5 0.2 0.2 0 0.7 0 0.5-0.1 0.9-0.4 6-5.4 8.7-11 0.5-0.8 0.1-1.5 0 0.2-0.2 0.7zm-12.6 7.6q-0.9 0.6-0.6 1.3 0 0.9 1 1.5 0.5 0.3 1 0.3 0.7 0 1.3-0.5 5.8-5 8.7-10.8 0.4-0.8 0.1-1.6-0.4-1.4-1.9-1.4-1.1 0-1.5 1-2.7 5.2-8.1 10.2z"/></svg>